<svg data-v-423bf9ae="" xmlns="http://www.w3.org/2000/svg" viewBox="0 0 745 90" class="iconLeftSlogan"><!----><!----><!----><g data-v-423bf9ae="" id="ee0977ff-b462-48d5-ac57-6c022949ea09" fill="#FFFFFF" transform="matrix(4.444444444444445,0,0,4.444444444444445,170.40212600760987,-9.688889424006149)"><path d="M3.96 3.23L3.96 3.23L3.96 3.23Q6.15 3.23 7.31 4.01L7.31 4.01L7.31 4.01Q8.47 4.79 8.47 6.43L8.47 6.43L8.47 6.43Q8.47 7.45 8.00 8.09L8.00 8.09L8.00 8.09Q7.53 8.72 6.65 9.09L6.65 9.09L6.65 9.09Q6.94 9.45 7.27 9.92L7.27 9.92L7.27 9.92Q7.59 10.39 7.90 10.90L7.90 10.90L7.90 10.90Q8.22 11.41 8.51 11.96L8.51 11.96L8.51 11.96Q8.81 12.52 9.06 13.05L9.06 13.05L6.61 13.05L6.61 13.05Q6.34 12.57 6.07 12.08L6.07 12.08L6.07 12.08Q5.80 11.59 5.51 11.13L5.51 11.13L5.51 11.13Q5.22 10.67 4.94 10.25L4.94 10.25L4.94 10.25Q4.66 9.84 4.38 9.51L4.38 9.51L3.30 9.51L3.30 13.05L1.12 13.05L1.12 3.49L1.12 3.49Q1.83 3.35 2.60 3.29L2.60 3.29L2.60 3.29Q3.36 3.23 3.96 3.23ZM4.09 5.10L4.09 5.10L4.09 5.10Q3.85 5.10 3.66 5.11L3.66 5.11L3.66 5.11Q3.47 5.12 3.30 5.14L3.30 5.14L3.30 7.77L3.92 7.77L3.92 7.77Q5.15 7.77 5.68 7.46L5.68 7.46L5.68 7.46Q6.22 7.15 6.22 6.41L6.22 6.41L6.22 6.41Q6.22 5.70 5.68 5.40L5.68 5.40L5.68 5.40Q5.14 5.10 4.09 5.10ZM12.40 5.68L12.40 13.05L10.32 13.05L10.32 5.68L12.40 5.68ZM12.60 3.56L12.60 3.56L12.60 3.56Q12.60 4.13 12.23 4.46L12.23 4.46L12.23 4.46Q11.86 4.79 11.35 4.79L11.35 4.79L11.35 4.79Q10.85 4.79 10.48 4.46L10.48 4.46L10.48 4.46Q10.11 4.13 10.11 3.56L10.11 3.56L10.11 3.56Q10.11 2.98 10.48 2.65L10.48 2.65L10.48 2.65Q10.85 2.32 11.35 2.32L11.35 2.32L11.35 2.32Q11.86 2.32 12.23 2.65L12.23 2.65L12.23 2.65Q12.60 2.98 12.60 3.56ZM16.14 9.13L16.14 9.13L16.14 9.13Q16.14 10.88 17.56 10.88L17.56 10.88L17.56 10.88Q17.88 10.88 18.16 10.79L18.16 10.79L18.16 10.79Q18.44 10.71 18.63 10.60L18.63 10.60L18.63 7.27L18.63 7.27Q18.48 7.24 18.27 7.22L18.27 7.22L18.27 7.22Q18.06 7.20 17.78 7.20L17.78 7.20L17.78 7.20Q16.95 7.20 16.55 7.74L16.55 7.74L16.55 7.74Q16.14 8.29 16.14 9.13ZM20.72 5.94L20.72 12.12L20.72 12.12Q20.72 13.93 19.80 14.80L19.80 14.80L19.80 14.80Q18.89 15.68 16.97 15.68L16.97 15.68L16.97 15.68Q16.30 15.68 15.62 15.56L15.62 15.56L15.62 15.56Q14.95 15.44 14.38 15.25L14.38 15.25L14.74 13.50L14.74 13.50Q15.23 13.69 15.77 13.80L15.77 13.80L15.77 13.80Q16.31 13.92 17.00 13.92L17.00 13.92L17.00 13.92Q17.89 13.92 18.26 13.52L18.26 13.52L18.26 13.52Q18.63 13.13 18.63 12.52L18.63 12.52L18.63 12.25L18.63 12.25Q18.30 12.40 17.94 12.48L17.94 12.48L17.94 12.48Q17.58 12.56 17.16 12.56L17.16 12.56L17.16 12.56Q15.64 12.56 14.83 11.65L14.83 11.65L14.83 11.65Q14.01 10.75 14.01 9.13L14.01 9.13L14.01 9.13Q14.01 8.32 14.27 7.65L14.27 7.65L14.27 7.65Q14.52 6.99 15.00 6.51L15.00 6.51L15.00 6.51Q15.48 6.03 16.18 5.77L16.18 5.77L16.18 5.77Q16.88 5.52 17.77 5.52L17.77 5.52L17.77 5.52Q18.14 5.52 18.54 5.55L18.54 5.55L18.54 5.55Q18.94 5.59 19.33 5.64L19.33 5.64L19.33 5.64Q19.73 5.70 20.08 5.77L20.08 5.77L20.08 5.77Q20.44 5.85 20.72 5.94L20.72 5.94ZM24.77 13.05L22.68 13.05L22.68 2.52L24.77 2.18L24.77 5.71L24.77 5.71Q24.98 5.64 25.31 5.58L25.31 5.58L25.31 5.58Q25.63 5.52 25.94 5.52L25.94 5.52L25.94 5.52Q26.84 5.52 27.43 5.76L27.43 5.76L27.43 5.76Q28.03 6.01 28.39 6.45L28.39 6.45L28.39 6.45Q28.74 6.90 28.89 7.52L28.89 7.52L28.89 7.52Q29.04 8.13 29.04 8.89L29.04 8.89L29.04 13.05L26.95 13.05L26.95 9.14L26.95 9.14Q26.95 8.13 26.69 7.71L26.69 7.71L26.69 7.71Q26.43 7.29 25.73 7.29L25.73 7.29L25.73 7.29Q25.45 7.29 25.21 7.34L25.21 7.34L25.21 7.34Q24.96 7.39 24.77 7.45L24.77 7.45L24.77 13.05ZM30.86 10.04L30.86 3.85L32.94 3.51L32.94 5.68L35.45 5.68L35.45 7.42L32.94 7.42L32.94 10.01L32.94 10.01Q32.94 10.67 33.17 11.06L33.17 11.06L33.17 11.06Q33.40 11.45 34.10 11.45L34.10 11.45L34.10 11.45Q34.44 11.45 34.80 11.39L34.80 11.39L34.80 11.39Q35.15 11.33 35.45 11.21L35.45 11.21L35.74 12.84L35.74 12.84Q35.36 12.99 34.90 13.10L34.90 13.10L34.90 13.10Q34.44 13.22 33.77 13.22L33.77 13.22L33.77 13.22Q32.91 13.22 32.35 12.98L32.35 12.98L32.35 12.98Q31.79 12.75 31.46 12.34L31.46 12.34L31.46 12.34Q31.12 11.93 30.99 11.34L30.99 11.34L30.99 11.34Q30.86 10.75 30.86 10.04L30.86 10.04ZM45.29 4.38L47.15 4.38L47.15 4.38Q47.32 4.96 47.52 5.68L47.52 5.68L47.52 5.68Q47.73 6.40 47.96 7.17L47.96 7.17L47.96 7.17Q48.19 7.94 48.43 8.71L48.43 8.71L48.43 8.71Q48.66 9.48 48.89 10.14L48.89 10.14L48.89 10.14Q49.07 9.42 49.26 8.58L49.26 8.58L49.26 8.58Q49.45 7.74 49.62 6.85L49.62 6.85L49.62 6.85Q49.78 5.95 49.95 5.06L49.95 5.06L49.95 5.06Q50.11 4.17 50.25 3.35L50.25 3.35L52.51 3.35L52.51 3.35Q52.02 5.78 51.39 8.29L51.39 8.29L51.39 8.29Q50.75 10.79 50.01 13.05L50.01 13.05L48.01 13.05L48.01 13.05Q47.52 11.70 47.05 10.23L47.05 10.23L47.05 10.23Q46.59 8.75 46.14 7.27L46.14 7.27L46.14 7.27Q45.70 8.75 45.25 10.23L45.25 10.23L45.25 10.23Q44.80 11.70 44.31 13.05L44.31 13.05L42.31 13.05L42.31 13.05Q41.57 10.79 40.93 8.29L40.93 8.29L40.93 8.29Q40.29 5.78 39.80 3.35L39.80 3.35L42.17 3.35L42.17 3.35Q42.31 4.17 42.48 5.06L42.48 5.06L42.48 5.06Q42.64 5.95 42.83 6.85L42.83 6.85L42.83 6.85Q43.01 7.74 43.20 8.58L43.20 8.58L43.20 8.58Q43.39 9.42 43.58 10.14L43.58 10.14L43.58 10.14Q43.83 9.45 44.07 8.68L44.07 8.68L44.07 8.68Q44.31 7.91 44.53 7.14L44.53 7.14L44.53 7.14Q44.76 6.37 44.95 5.66L44.95 5.66L44.95 5.66Q45.14 4.94 45.29 4.38L45.29 4.38ZM56.59 11.59L56.59 11.59L56.59 11.59Q56.90 11.59 57.18 11.58L57.18 11.58L57.18 11.58Q57.46 11.56 57.62 11.54L57.62 11.54L57.62 9.95L57.62 9.95Q57.50 9.93 57.25 9.90L57.25 9.90L57.25 9.90Q56.99 9.87 56.78 9.87L56.78 9.87L56.78 9.87Q56.49 9.87 56.23 9.90L56.23 9.90L56.23 9.90Q55.97 9.94 55.78 10.04L55.78 10.04L55.78 10.04Q55.58 10.14 55.47 10.30L55.47 10.30L55.47 10.30Q55.36 10.47 55.36 10.72L55.36 10.72L55.36 10.72Q55.36 11.21 55.69 11.40L55.69 11.40L55.69 11.40Q56.01 11.59 56.59 11.59ZM56.42 5.49L56.42 5.49L56.42 5.49Q57.34 5.49 57.96 5.70L57.96 5.70L57.96 5.70Q58.58 5.91 58.95 6.30L58.95 6.30L58.95 6.30Q59.32 6.69 59.47 7.25L59.47 7.25L59.47 7.25Q59.63 7.81 59.63 8.50L59.63 8.50L59.63 12.84L59.63 12.84Q59.18 12.94 58.38 13.07L58.38 13.07L58.38 13.07Q57.58 13.20 56.45 13.20L56.45 13.20L56.45 13.20Q55.73 13.20 55.15 13.08L55.15 13.08L55.15 13.08Q54.57 12.95 54.15 12.66L54.15 12.66L54.15 12.66Q53.73 12.38 53.51 11.91L53.51 11.91L53.51 11.91Q53.28 11.45 53.28 10.78L53.28 10.78L53.28 10.78Q53.28 10.14 53.54 9.69L53.54 9.69L53.54 9.69Q53.80 9.24 54.24 8.97L54.24 8.97L54.24 8.97Q54.67 8.71 55.23 8.59L55.23 8.59L55.23 8.59Q55.79 8.47 56.39 8.47L56.39 8.47L56.39 8.47Q56.80 8.47 57.11 8.50L57.11 8.50L57.11 8.50Q57.43 8.54 57.62 8.60L57.62 8.60L57.62 8.40L57.62 8.40Q57.62 7.87 57.30 7.55L57.30 7.55L57.30 7.55Q56.98 7.22 56.18 7.22L56.18 7.22L56.18 7.22Q55.65 7.22 55.13 7.30L55.13 7.30L55.13 7.30Q54.61 7.38 54.24 7.52L54.24 7.52L53.97 5.84L53.97 5.84Q54.15 5.78 54.43 5.72L54.43 5.72L54.43 5.72Q54.70 5.66 55.02 5.61L55.02 5.61L55.02 5.61Q55.34 5.56 55.70 5.52L55.70 5.52L55.70 5.52Q56.06 5.49 56.42 5.49ZM65.90 5.68L68.05 5.68L68.05 5.68Q67.42 7.81 66.74 9.67L66.74 9.67L66.74 9.67Q66.05 11.54 65.24 13.29L65.24 13.29L65.24 13.29Q64.95 13.92 64.65 14.36L64.65 14.36L64.65 14.36Q64.36 14.80 64.01 15.09L64.01 15.09L64.01 15.09Q63.66 15.37 63.22 15.50L63.22 15.50L63.22 15.50Q62.78 15.64 62.19 15.64L62.19 15.64L62.19 15.64Q61.70 15.64 61.29 15.55L61.29 15.55L61.29 15.55Q60.87 15.46 60.61 15.34L60.61 15.34L60.97 13.68L60.97 13.68Q61.29 13.79 61.54 13.83L61.54 13.83L61.54 13.83Q61.80 13.87 62.08 13.87L62.08 13.87L62.08 13.87Q62.64 13.87 62.94 13.57L62.94 13.57L62.94 13.57Q63.24 13.27 63.45 12.74L63.45 12.74L63.45 12.74Q62.73 11.34 62.02 9.60L62.02 9.60L62.02 9.60Q61.31 7.85 60.68 5.68L60.68 5.68L62.89 5.68L62.89 5.68Q63.03 6.23 63.22 6.87L63.22 6.87L63.22 6.87Q63.41 7.50 63.62 8.16L63.62 8.16L63.62 8.16Q63.83 8.81 64.04 9.42L64.04 9.42L64.04 9.42Q64.26 10.04 64.46 10.54L64.46 10.54L64.46 10.54Q64.64 10.04 64.83 9.42L64.83 9.42L64.83 9.42Q65.03 8.81 65.22 8.16L65.22 8.16L65.22 8.16Q65.41 7.50 65.58 6.87L65.58 6.87L65.58 6.87Q65.76 6.23 65.90 5.68L65.90 5.68ZM74.86 11.17L79.16 11.17L79.16 13.05L72.67 13.05L72.67 3.35L74.86 3.35L74.86 11.17ZM80.07 9.42L80.07 9.42L80.07 9.42Q80.07 8.44 80.37 7.71L80.37 7.71L80.37 7.71Q80.67 6.97 81.16 6.48L81.16 6.48L81.16 6.48Q81.65 5.99 82.29 5.74L82.29 5.74L82.29 5.74Q82.92 5.49 83.59 5.49L83.59 5.49L83.59 5.49Q85.16 5.49 86.07 6.45L86.07 6.45L86.07 6.45Q86.98 7.41 86.98 9.27L86.98 9.27L86.98 9.27Q86.98 9.45 86.97 9.67L86.97 9.67L86.97 9.67Q86.95 9.88 86.94 10.05L86.94 10.05L82.21 10.05L82.21 10.05Q82.28 10.70 82.81 11.07L82.81 11.07L82.81 11.07Q83.34 11.45 84.24 11.45L84.24 11.45L84.24 11.45Q84.81 11.45 85.37 11.35L85.37 11.35L85.37 11.35Q85.92 11.24 86.27 11.09L86.27 11.09L86.55 12.78L86.55 12.78Q86.38 12.87 86.10 12.95L86.10 12.95L86.10 12.95Q85.82 13.03 85.48 13.10L85.48 13.10L85.48 13.10Q85.13 13.16 84.74 13.20L84.74 13.20L84.74 13.20Q84.35 13.24 83.96 13.24L83.96 13.24L83.96 13.24Q82.96 13.24 82.23 12.95L82.23 12.95L82.23 12.95Q81.49 12.66 81.01 12.14L81.01 12.14L81.01 12.14Q80.53 11.63 80.30 10.93L80.30 10.93L80.30 10.93Q80.07 10.23 80.07 9.42ZM82.21 8.62L84.97 8.62L84.97 8.62Q84.95 8.36 84.88 8.11L84.88 8.11L84.88 8.11Q84.80 7.85 84.64 7.66L84.64 7.66L84.64 7.66Q84.48 7.46 84.23 7.34L84.23 7.34L84.23 7.34Q83.99 7.21 83.62 7.21L83.62 7.21L83.62 7.21Q83.27 7.21 83.02 7.33L83.02 7.33L83.02 7.33Q82.77 7.45 82.60 7.64L82.60 7.64L82.60 7.64Q82.43 7.84 82.34 8.10L82.34 8.10L82.34 8.10Q82.25 8.36 82.21 8.62L82.21 8.62ZM91.41 11.59L91.41 11.59L91.41 11.59Q91.71 11.59 91.99 11.58L91.99 11.58L91.99 11.58Q92.27 11.56 92.44 11.54L92.44 11.54L92.44 9.95L92.44 9.95Q92.32 9.93 92.06 9.90L92.06 9.90L92.06 9.90Q91.81 9.87 91.60 9.87L91.60 9.87L91.60 9.87Q91.31 9.87 91.05 9.90L91.05 9.90L91.05 9.90Q90.79 9.94 90.59 10.04L90.59 10.04L90.59 10.04Q90.40 10.14 90.29 10.30L90.29 10.30L90.29 10.30Q90.17 10.47 90.17 10.72L90.17 10.72L90.17 10.72Q90.17 11.21 90.50 11.40L90.50 11.40L90.50 11.40Q90.83 11.59 91.41 11.59ZM91.24 5.49L91.24 5.49L91.24 5.49Q92.16 5.49 92.78 5.70L92.78 5.70L92.78 5.70Q93.39 5.91 93.77 6.30L93.77 6.30L93.77 6.30Q94.14 6.69 94.29 7.25L94.29 7.25L94.29 7.25Q94.44 7.81 94.44 8.50L94.44 8.50L94.44 12.84L94.44 12.84Q94.00 12.94 93.20 13.07L93.20 13.07L93.20 13.07Q92.40 13.20 91.27 13.20L91.27 13.20L91.27 13.20Q90.55 13.20 89.97 13.08L89.97 13.08L89.97 13.08Q89.39 12.95 88.97 12.66L88.97 12.66L88.97 12.66Q88.55 12.38 88.33 11.91L88.33 11.91L88.33 11.91Q88.10 11.45 88.10 10.78L88.10 10.78L88.10 10.78Q88.10 10.14 88.36 9.69L88.36 9.69L88.36 9.69Q88.62 9.24 89.05 8.97L89.05 8.97L89.05 8.97Q89.49 8.71 90.05 8.59L90.05 8.59L90.05 8.59Q90.61 8.47 91.21 8.47L91.21 8.47L91.21 8.47Q91.62 8.47 91.93 8.50L91.93 8.50L91.93 8.50Q92.25 8.54 92.44 8.60L92.44 8.60L92.44 8.40L92.44 8.40Q92.44 7.87 92.12 7.55L92.12 7.55L92.12 7.55Q91.80 7.22 91.00 7.22L91.00 7.22L91.00 7.22Q90.47 7.22 89.95 7.30L89.95 7.30L89.95 7.30Q89.43 7.38 89.05 7.52L89.05 7.52L88.79 5.84L88.79 5.84Q88.97 5.78 89.24 5.72L89.24 5.72L89.24 5.72Q89.52 5.66 89.84 5.61L89.84 5.61L89.84 5.61Q90.16 5.56 90.52 5.52L90.52 5.52L90.52 5.52Q90.87 5.49 91.24 5.49ZM101.12 5.81L100.77 7.53L100.77 7.53Q100.49 7.46 100.11 7.38L100.11 7.38L100.11 7.38Q99.74 7.31 99.30 7.31L99.30 7.31L99.30 7.31Q99.11 7.31 98.83 7.34L98.83 7.34L98.83 7.34Q98.56 7.38 98.42 7.42L98.42 7.42L98.42 13.05L96.33 13.05L96.33 6.08L96.33 6.08Q96.89 5.88 97.66 5.71L97.66 5.71L97.66 5.71Q98.42 5.53 99.36 5.53L99.36 5.53L99.36 5.53Q99.53 5.53 99.76 5.55L99.76 5.55L99.76 5.55Q100.00 5.57 100.24 5.61L100.24 5.61L100.24 5.61Q100.48 5.64 100.72 5.69L100.72 5.69L100.72 5.69Q100.95 5.74 101.12 5.81L101.12 5.81ZM102.24 13.05L102.24 5.94L102.24 5.94Q102.77 5.78 103.61 5.65L103.61 5.65L103.61 5.65Q104.45 5.52 105.38 5.52L105.38 5.52L105.38 5.52Q106.32 5.52 106.94 5.76L106.94 5.76L106.94 5.76Q107.56 6.01 107.93 6.45L107.93 6.45L107.93 6.45Q108.29 6.90 108.44 7.52L108.44 7.52L108.44 7.52Q108.60 8.13 108.60 8.89L108.60 8.89L108.60 13.05L106.51 13.05L106.51 9.14L106.51 9.14Q106.51 8.13 106.25 7.71L106.25 7.71L106.25 7.71Q105.98 7.29 105.25 7.29L105.25 7.29L105.25 7.29Q105.03 7.29 104.78 7.31L104.78 7.31L104.78 7.31Q104.52 7.34 104.33 7.36L104.33 7.36L104.33 13.05L102.24 13.05ZM112.57 5.68L112.57 13.05L110.49 13.05L110.49 5.68L112.57 5.68ZM112.77 3.56L112.77 3.56L112.77 3.56Q112.77 4.13 112.40 4.46L112.40 4.46L112.40 4.46Q112.03 4.79 111.52 4.79L111.52 4.79L111.52 4.79Q111.02 4.79 110.65 4.46L110.65 4.46L110.65 4.46Q110.28 4.13 110.28 3.56L110.28 3.56L110.28 3.56Q110.28 2.98 110.65 2.65L110.65 2.65L110.65 2.65Q111.02 2.32 111.52 2.32L111.52 2.32L111.52 2.32Q112.03 2.32 112.40 2.65L112.40 2.65L112.40 2.65Q112.77 2.98 112.77 3.56ZM114.53 13.05L114.53 5.94L114.53 5.94Q115.07 5.78 115.91 5.65L115.91 5.65L115.91 5.65Q116.75 5.52 117.67 5.52L117.67 5.52L117.67 5.52Q118.61 5.52 119.23 5.76L119.23 5.76L119.23 5.76Q119.85 6.01 120.22 6.45L120.22 6.45L120.22 6.45Q120.58 6.90 120.74 7.52L120.74 7.52L120.74 7.52Q120.89 8.13 120.89 8.89L120.89 8.89L120.89 13.05L118.80 13.05L118.80 9.14L118.80 9.14Q118.80 8.13 118.54 7.71L118.54 7.71L118.54 7.71Q118.27 7.29 117.54 7.29L117.54 7.29L117.54 7.29Q117.32 7.29 117.07 7.31L117.07 7.31L117.07 7.31Q116.82 7.34 116.62 7.36L116.62 7.36L116.62 13.05L114.53 13.05ZM124.56 9.13L124.56 9.13L124.56 9.13Q124.56 10.88 125.97 10.88L125.97 10.88L125.97 10.88Q126.29 10.88 126.57 10.79L126.57 10.79L126.57 10.79Q126.85 10.71 127.05 10.60L127.05 10.60L127.05 7.27L127.05 7.27Q126.90 7.24 126.69 7.22L126.69 7.22L126.69 7.22Q126.48 7.20 126.20 7.20L126.20 7.20L126.20 7.20Q125.37 7.20 124.96 7.74L124.96 7.74L124.96 7.74Q124.56 8.29 124.56 9.13ZM129.14 5.94L129.14 12.12L129.14 12.12Q129.14 13.93 128.22 14.80L128.22 14.80L128.22 14.80Q127.30 15.68 125.38 15.68L125.38 15.68L125.38 15.68Q124.71 15.68 124.04 15.56L124.04 15.56L124.04 15.56Q123.37 15.44 122.79 15.25L122.79 15.25L123.16 13.50L123.16 13.50Q123.65 13.69 124.19 13.80L124.19 13.80L124.19 13.80Q124.73 13.92 125.41 13.92L125.41 13.92L125.41 13.92Q126.31 13.92 126.68 13.52L126.68 13.52L126.68 13.52Q127.05 13.13 127.05 12.52L127.05 12.52L127.05 12.25L127.05 12.25Q126.71 12.40 126.36 12.48L126.36 12.48L126.36 12.48Q126.00 12.56 125.58 12.56L125.58 12.56L125.58 12.56Q124.05 12.56 123.24 11.65L123.24 11.65L123.24 11.65Q122.43 10.75 122.43 9.13L122.43 9.13L122.43 9.13Q122.43 8.32 122.68 7.65L122.68 7.65L122.68 7.65Q122.93 6.99 123.42 6.51L123.42 6.51L123.42 6.51Q123.90 6.03 124.60 5.77L124.60 5.77L124.60 5.77Q125.30 5.52 126.18 5.52L126.18 5.52L126.18 5.52Q126.56 5.52 126.96 5.55L126.96 5.55L126.96 5.55Q127.36 5.59 127.75 5.64L127.75 5.64L127.75 5.64Q128.14 5.70 128.50 5.77L128.50 5.77L128.50 5.77Q128.86 5.85 129.14 5.94L129.14 5.94Z"></path></g><!----><g data-v-423bf9ae="" id="3c391f39-fb4a-406f-a6e1-49432365e368" transform="matrix(2.3826714363938857,0,0,2.3826714363938857,-4.537605437068578,-38.280742456686085)" stroke="none" fill="#81E291"><path d="M57.41 40.919h-2.051a1 1 0 1 0 0 2h2.051a1 1 0 1 0 0-2zM66.272 41.005h-2.051a1 1 0 1 0 0 2h2.051a1 1 0 1 0 0-2zM60.915 43.252a1 1 0 0 0-1 1v2.051a1 1 0 1 0 2 0v-2.051a1 1 0 0 0-1-1z"></path><path d="M60.896 40.368a1 1 0 0 0 1-1V27.787c0-.417-.259-.79-.649-.937L32.691 16.178a.993.993 0 0 0-.7 0L3.436 26.851a1 1 0 1 0-.026 1.863l9.667 3.921V48.07c0 3.997 9.991 5.817 19.274 5.817 9.283 0 19.274-1.82 19.274-5.817v-15.2l5.144-2.021a.998.998 0 0 0 .565-1.296.998.998 0 0 0-1.296-.565l-23.692 9.304L6.541 27.825l25.8-9.644 27.556 10.3v10.887a.998.998 0 0 0 .999 1zm-28.555 0c.124 0 .248-.023.366-.069l16.919-6.645v14.415c0 1.296-6.097 3.817-17.274 3.817s-17.274-2.521-17.274-3.817V33.446l16.887 6.849c.12.049.248.073.376.073z"></path></g><!----><g data-v-423bf9ae="" id="a922de00-1aaa-4bd2-b503-42ab873b8851" fill="#FFFFFF" transform="matrix(1.1001649542151903,0,0,1.1001649542151903,174.6097924379743,55.8303729649362)"><path d="M7.07 11.97C6.87 11.97 6.79 12.08 6.78 12.31C6.78 12.32 6.78 12.38 6.76 12.43C6.75 12.49 6.75 12.59 6.73 12.71C6.72 12.84 6.71 13.01 6.69 13.20L2.60 13.20L2.60 4.47C2.77 4.47 2.91 4.45 3.05 4.45C3.19 4.45 3.30 4.44 3.37 4.44L3.50 4.44C3.68 4.42 3.78 4.34 3.78 4.19L3.78 3.92L2.60 3.92L1.89 3.92L0.70 3.92L0.70 4.19C0.70 4.34 0.80 4.42 0.98 4.44L1.12 4.44C1.19 4.44 1.29 4.45 1.43 4.45C1.57 4.45 1.72 4.47 1.89 4.47L1.89 13.26C1.72 13.26 1.57 13.27 1.43 13.27C1.29 13.27 1.19 13.29 1.12 13.29L0.98 13.29C0.80 13.30 0.70 13.38 0.70 13.54L0.70 13.82L1.89 13.82L7.17 13.82L7.29 13.82L7.42 13.82L7.42 13.55L7.42 12.99L7.42 11.97L7.14 11.97ZM17.04 3.92L15.85 3.92L15.85 4.19C15.85 4.34 15.95 4.42 16.13 4.44L16.27 4.44C16.34 4.44 16.44 4.45 16.58 4.45C16.72 4.45 16.87 4.47 17.04 4.47L17.04 13.26C16.87 13.26 16.72 13.27 16.58 13.27C16.44 13.27 16.34 13.29 16.27 13.29L16.13 13.29C15.95 13.30 15.86 13.38 15.86 13.54L15.86 13.82L17.04 13.82L22.97 13.82L22.97 13.22L22.97 11.76L22.62 11.76C22.43 11.76 22.34 11.89 22.33 12.11C22.33 12.14 22.32 12.19 22.32 12.29C22.32 12.39 22.32 12.53 22.30 12.74C22.29 12.95 22.27 13.09 22.27 13.22L17.75 13.22L17.75 9.09L21.70 9.09L21.70 8.51L17.75 8.51L17.75 4.51L22.27 4.51C22.30 5.12 22.33 5.50 22.33 5.63C22.34 5.85 22.43 5.96 22.62 5.96L22.97 5.96L22.97 4.51L22.97 3.92ZM40.85 13.22L40.39 13.17L36.61 3.91L35.90 3.91L32.10 13.17L31.65 13.22C31.47 13.23 31.39 13.33 31.39 13.50L31.39 13.82L31.84 13.82L32.13 13.82L32.38 13.82L32.48 13.82L33.80 13.82L33.80 13.50C33.80 13.31 33.68 13.23 33.47 13.22C33.46 13.22 33.43 13.20 33.39 13.20C33.35 13.20 33.29 13.19 33.19 13.19C33.10 13.19 32.97 13.19 32.83 13.17L33.81 10.75L33.88 10.57L38.61 10.57L38.68 10.75L39.66 13.17C39.52 13.19 39.41 13.19 39.31 13.19C39.21 13.19 39.14 13.20 39.10 13.20C39.06 13.20 39.03 13.22 39.02 13.22C38.81 13.23 38.70 13.31 38.70 13.50L38.70 13.82L40.01 13.82L40.11 13.82L40.38 13.82L40.66 13.82L41.12 13.82L41.12 13.50C41.12 13.33 41.03 13.23 40.85 13.22ZM36.05 5.22C36.08 5.14 36.12 5.04 36.15 4.94C36.18 4.84 36.22 4.75 36.25 4.63C36.27 4.75 36.32 4.84 36.34 4.94C36.37 5.04 36.41 5.12 36.44 5.21L38.40 10.04L34.10 10.04ZM57.34 13.29L57.25 13.29L57.06 13.29C56.98 13.29 56.90 13.27 56.81 13.27L53.84 9.53C53.76 9.42 53.65 9.32 53.54 9.25C53.97 9.21 54.36 9.11 54.71 8.96C55.06 8.81 55.34 8.61 55.59 8.37C55.83 8.13 56.03 7.85 56.15 7.55C56.28 7.24 56.35 6.89 56.35 6.51C56.35 5.66 56.07 5.03 55.51 4.58C54.95 4.14 54.10 3.92 52.95 3.92L50.54 3.92L49.36 3.92L49.36 4.19C49.36 4.34 49.45 4.42 49.63 4.44L49.77 4.44C49.84 4.44 49.94 4.45 50.08 4.45C50.22 4.45 50.37 4.47 50.54 4.47L50.54 13.26C50.37 13.26 50.22 13.27 50.08 13.27C49.94 13.27 49.84 13.29 49.77 13.29L49.63 13.29C49.45 13.30 49.35 13.38 49.35 13.54L49.35 13.82L50.54 13.82L51.25 13.82L52.43 13.82L52.43 13.54C52.43 13.38 52.33 13.30 52.15 13.29L52.01 13.29C51.94 13.29 51.84 13.27 51.70 13.27C51.56 13.27 51.42 13.26 51.25 13.26L51.25 9.34L52.43 9.34C52.63 9.34 52.77 9.35 52.85 9.39C52.93 9.44 53.02 9.52 53.10 9.62L56.28 13.64C56.34 13.71 56.38 13.75 56.43 13.78C56.49 13.80 56.56 13.82 56.63 13.82L56.70 13.82L57.25 13.82L57.61 13.82L57.61 13.54C57.61 13.38 57.53 13.30 57.34 13.29ZM52.85 8.81L51.25 8.81L51.25 4.48L52.95 4.48C53.83 4.48 54.50 4.66 54.96 5.00C55.43 5.33 55.65 5.87 55.65 6.57C55.65 6.92 55.59 7.21 55.47 7.49C55.34 7.77 55.15 7.99 54.91 8.19C54.67 8.39 54.38 8.55 54.03 8.65C53.68 8.75 53.28 8.81 52.85 8.81ZM74.65 3.92L74.02 3.92L72.80 3.92L72.80 4.19C72.80 4.34 72.90 4.42 73.08 4.44L73.22 4.44C73.29 4.44 73.40 4.45 73.54 4.45C73.68 4.45 73.85 4.47 74.02 4.47L74.02 12.22C74.02 12.35 74.02 12.49 74.03 12.63L67.62 4.05C67.58 3.99 67.55 3.95 67.51 3.93C67.47 3.92 67.42 3.91 67.35 3.91L67.00 3.91L65.81 3.91L65.81 4.19C65.81 4.34 65.91 4.42 66.09 4.44L66.23 4.44C66.30 4.44 66.40 4.45 66.54 4.45C66.68 4.45 66.84 4.47 67.00 4.47L67.00 13.26C66.84 13.26 66.68 13.27 66.54 13.27C66.40 13.27 66.30 13.29 66.23 13.29L66.09 13.29C65.91 13.30 65.81 13.38 65.81 13.54L65.81 13.82L67.00 13.82L67.62 13.82L68.84 13.82L68.84 13.54C68.84 13.38 68.74 13.30 68.56 13.29L68.42 13.29C68.35 13.29 68.22 13.27 68.08 13.27C67.94 13.27 67.79 13.26 67.62 13.26L67.62 5.49C67.62 5.36 67.62 5.22 67.61 5.08L74.05 13.68C74.12 13.78 74.19 13.82 74.30 13.82L74.65 13.82L74.65 4.47C74.82 4.47 74.96 4.45 75.10 4.45C75.24 4.45 75.35 4.44 75.42 4.44L75.54 4.44C75.73 4.42 75.82 4.34 75.82 4.19L75.82 3.92ZM86.67 4.44C86.86 4.42 86.94 4.34 86.94 4.19L86.94 3.91L85.76 3.91L85.05 3.91L83.86 3.91L83.86 4.19C83.86 4.34 83.96 4.42 84.14 4.44L84.28 4.44C84.35 4.44 84.45 4.45 84.59 4.45C84.73 4.45 84.88 4.47 85.05 4.47L85.05 13.26C84.88 13.26 84.73 13.27 84.59 13.27C84.45 13.27 84.35 13.29 84.28 13.29L84.14 13.29C83.96 13.30 83.86 13.38 83.86 13.54L83.86 13.82L85.05 13.82L85.76 13.82L86.94 13.82L86.94 13.54C86.94 13.38 86.86 13.30 86.67 13.29L86.53 13.29C86.46 13.29 86.37 13.27 86.23 13.27C86.09 13.27 85.93 13.26 85.76 13.26L85.76 4.47C85.93 4.47 86.09 4.45 86.23 4.45C86.37 4.45 86.46 4.44 86.53 4.44ZM104.12 3.92L103.49 3.92L102.27 3.92L102.27 4.19C102.27 4.34 102.37 4.42 102.55 4.44L102.69 4.44C102.76 4.44 102.87 4.45 103.01 4.45C103.15 4.45 103.32 4.47 103.49 4.47L103.49 12.22C103.49 12.35 103.49 12.49 103.50 12.63L97.09 4.05C97.05 3.99 97.02 3.95 96.98 3.93C96.94 3.92 96.89 3.91 96.82 3.91L96.47 3.91L95.28 3.91L95.28 4.19C95.28 4.34 95.38 4.42 95.56 4.44L95.70 4.44C95.77 4.44 95.87 4.45 96.01 4.45C96.15 4.45 96.31 4.47 96.47 4.47L96.47 13.26C96.31 13.26 96.15 13.27 96.01 13.27C95.87 13.27 95.77 13.29 95.70 13.29L95.56 13.29C95.38 13.30 95.28 13.38 95.28 13.54L95.28 13.82L96.47 13.82L97.09 13.82L98.31 13.82L98.31 13.54C98.31 13.38 98.21 13.30 98.03 13.29L97.89 13.29C97.82 13.29 97.69 13.27 97.55 13.27C97.41 13.27 97.26 13.26 97.09 13.26L97.09 5.49C97.09 5.36 97.09 5.22 97.08 5.08L103.52 13.68C103.59 13.78 103.66 13.82 103.77 13.82L104.12 13.82L104.12 4.47C104.29 4.47 104.43 4.45 104.57 4.45C104.71 4.45 104.82 4.44 104.89 4.44L105.01 4.44C105.20 4.42 105.29 4.34 105.29 4.19L105.29 3.92ZM118.97 9.32L118.97 9.72C118.97 9.76 119 9.80 119.03 9.83C119.06 9.86 119.10 9.87 119.15 9.87L121.06 9.87L121.06 12.54C120.83 12.67 120.61 12.78 120.40 12.88C120.19 12.98 119.95 13.08 119.71 13.15C119.48 13.22 119.21 13.27 118.93 13.30C118.65 13.33 118.34 13.34 118.01 13.34C117.39 13.34 116.83 13.24 116.33 13.03C115.82 12.82 115.39 12.53 115.02 12.15C114.66 11.77 114.38 11.30 114.18 10.74C113.99 10.18 113.88 9.56 113.88 8.86C113.88 8.18 113.99 7.56 114.18 7.01C114.38 6.47 114.66 5.99 115.02 5.61C115.39 5.24 115.84 4.94 116.35 4.73C116.87 4.52 117.45 4.42 118.09 4.42C119.27 4.42 120.20 4.58 120.89 4.90C120.93 5.81 120.96 6.31 120.96 6.41C120.97 6.64 121.07 6.75 121.27 6.75L121.60 6.75L121.60 4.51C121.17 4.31 120.61 4.14 119.91 4.00C119.21 3.86 118.62 3.81 118.12 3.81C117.36 3.81 116.68 3.92 116.06 4.16C115.44 4.40 114.93 4.75 114.49 5.18C114.06 5.61 113.74 6.15 113.50 6.78C113.26 7.39 113.15 8.09 113.15 8.86C113.15 9.63 113.26 10.32 113.50 10.95C113.74 11.58 114.06 12.10 114.48 12.54C114.90 12.99 115.42 13.33 116.00 13.57C116.59 13.80 117.24 13.93 117.95 13.93C118.37 13.93 118.75 13.90 119.10 13.86C119.45 13.80 119.77 13.73 120.08 13.65C120.39 13.55 120.67 13.44 120.93 13.30C121.20 13.16 121.45 13.01 121.70 12.84L121.70 9.32ZM149.48 6.80C149.25 6.19 148.93 5.68 148.51 5.25C148.09 4.82 147.60 4.48 147.03 4.26C146.45 4.03 145.80 3.92 145.10 3.92L141.67 3.92L140.48 3.92L140.48 4.19C140.48 4.34 140.57 4.42 140.76 4.44L140.90 4.44C140.97 4.44 141.06 4.45 141.20 4.45C141.34 4.45 141.50 4.47 141.67 4.47L141.67 13.26C141.50 13.26 141.34 13.27 141.20 13.27C141.06 13.27 140.97 13.29 140.90 13.29L140.76 13.29C140.57 13.30 140.48 13.38 140.48 13.54L140.48 13.82L141.67 13.82L145.10 13.82C145.80 13.82 146.45 13.71 147.03 13.48C147.60 13.26 148.09 12.92 148.51 12.49C148.93 12.05 149.25 11.54 149.48 10.92C149.70 10.30 149.83 9.63 149.83 8.86C149.83 8.11 149.70 7.42 149.48 6.80ZM148.79 10.72C148.60 11.27 148.34 11.72 147.99 12.10C147.64 12.47 147.22 12.75 146.73 12.95C146.24 13.15 145.70 13.24 145.10 13.24L142.38 13.24L142.38 4.49L145.10 4.49C145.70 4.49 146.24 4.59 146.73 4.79C147.22 4.98 147.64 5.26 147.99 5.64C148.34 6.02 148.60 6.47 148.79 7.01C148.99 7.56 149.09 8.18 149.09 8.86C149.09 9.56 148.99 10.18 148.79 10.72ZM167.38 8.86C167.38 8.11 167.26 7.41 167.03 6.79C166.81 6.17 166.49 5.64 166.07 5.19C165.65 4.75 165.16 4.40 164.58 4.16C164.01 3.92 163.35 3.79 162.65 3.79C161.95 3.79 161.32 3.92 160.75 4.16C160.17 4.40 159.67 4.75 159.25 5.19C158.83 5.64 158.51 6.17 158.28 6.79C158.06 7.41 157.93 8.11 157.93 8.86C157.93 9.63 158.06 10.33 158.28 10.95C158.51 11.56 158.83 12.10 159.25 12.54C159.67 12.99 160.17 13.33 160.75 13.57C161.32 13.80 161.95 13.93 162.65 13.93C163.35 13.93 164.01 13.80 164.58 13.57C165.16 13.33 165.65 12.99 166.07 12.54C166.49 12.10 166.81 11.56 167.03 10.95C167.26 10.33 167.38 9.63 167.38 8.86ZM166.63 8.86C166.63 9.56 166.54 10.18 166.35 10.72C166.15 11.27 165.89 11.75 165.54 12.12C165.19 12.50 164.77 12.81 164.28 13.01C163.79 13.20 163.25 13.30 162.65 13.30C162.06 13.30 161.53 13.20 161.04 13.01C160.55 12.81 160.13 12.50 159.78 12.12C159.43 11.75 159.15 11.27 158.96 10.72C158.76 10.18 158.68 9.56 158.68 8.86C158.68 8.18 158.76 7.55 158.96 7.00C159.15 6.45 159.43 5.98 159.78 5.60C160.13 5.22 160.55 4.91 161.04 4.72C161.53 4.52 162.06 4.41 162.65 4.41C163.25 4.41 163.79 4.52 164.28 4.72C164.77 4.91 165.19 5.22 165.54 5.60C165.89 5.98 166.15 6.45 166.35 7.00C166.54 7.55 166.63 8.18 166.63 8.86ZM184.21 3.92L183.58 3.92L182.36 3.92L182.36 4.19C182.36 4.34 182.46 4.42 182.64 4.44L182.78 4.44C182.85 4.44 182.97 4.45 183.11 4.45C183.25 4.45 183.41 4.47 183.58 4.47L183.58 12.22C183.58 12.35 183.58 12.49 183.60 12.63L177.18 4.05C177.14 3.99 177.11 3.95 177.07 3.93C177.03 3.92 176.99 3.91 176.92 3.91L176.57 3.91L175.38 3.91L175.38 4.19C175.38 4.34 175.48 4.42 175.66 4.44L175.80 4.44C175.87 4.44 175.97 4.45 176.11 4.45C176.25 4.45 176.40 4.47 176.57 4.47L176.57 13.26C176.40 13.26 176.25 13.27 176.11 13.27C175.97 13.27 175.87 13.29 175.80 13.29L175.66 13.29C175.48 13.30 175.38 13.38 175.38 13.54L175.38 13.82L176.57 13.82L177.18 13.82L178.40 13.82L178.40 13.54C178.40 13.38 178.30 13.30 178.12 13.29L177.98 13.29C177.91 13.29 177.79 13.27 177.65 13.27C177.51 13.27 177.35 13.26 177.18 13.26L177.18 5.49C177.18 5.36 177.18 5.22 177.17 5.08L183.61 13.68C183.68 13.78 183.75 13.82 183.86 13.82L184.21 13.82L184.21 4.47C184.38 4.47 184.52 4.45 184.66 4.45C184.80 4.45 184.91 4.44 184.98 4.44L185.11 4.44C185.29 4.42 185.39 4.34 185.39 4.19L185.39 3.92ZM194.61 3.92L193.42 3.92L193.42 4.19C193.42 4.34 193.52 4.42 193.70 4.44L193.84 4.44C193.91 4.44 194.01 4.45 194.15 4.45C194.29 4.45 194.45 4.47 194.61 4.47L194.61 13.26C194.45 13.26 194.29 13.27 194.15 13.27C194.01 13.27 193.91 13.29 193.84 13.29L193.70 13.29C193.52 13.30 193.44 13.38 193.44 13.54L193.44 13.82L194.61 13.82L200.55 13.82L200.55 13.22L200.55 11.76L200.20 11.76C200.00 11.76 199.92 11.89 199.91 12.11C199.91 12.14 199.89 12.19 199.89 12.29C199.89 12.39 199.89 12.53 199.88 12.74C199.86 12.95 199.85 13.09 199.85 13.22L195.33 13.22L195.33 9.09L199.28 9.09L199.28 8.51L195.33 8.51L195.33 4.51L199.85 4.51C199.88 5.12 199.91 5.50 199.91 5.63C199.92 5.85 200.00 5.96 200.20 5.96L200.55 5.96L200.55 4.51L200.55 3.92ZM227.02 3.92L226.83 3.92L219.53 3.92L219.32 3.92L219.23 3.92L219.23 5.96L219.58 5.96C219.77 5.96 219.86 5.85 219.87 5.63C219.87 5.53 219.90 5.17 219.93 4.52L222.82 4.52L222.82 13.26C222.66 13.26 222.52 13.27 222.38 13.27C222.24 13.27 222.12 13.29 222.05 13.29L221.93 13.29C221.75 13.30 221.65 13.38 221.65 13.54L221.65 13.82L222.82 13.82L223.54 13.82L224.73 13.82L224.73 13.54C224.73 13.38 224.63 13.30 224.45 13.29L224.31 13.29C224.24 13.29 224.14 13.27 224.00 13.27C223.86 13.27 223.71 13.26 223.54 13.26L223.54 4.52L226.42 4.52C226.46 5.24 226.48 5.60 226.48 5.63C226.49 5.85 226.59 5.96 226.79 5.96L227.12 5.96L227.12 3.92ZM244.96 4.44C245.14 4.42 245.24 4.34 245.24 4.19L245.24 3.92L244.06 3.92L243.33 3.92L242.16 3.92L242.16 4.19C242.16 4.34 242.26 4.42 242.44 4.44L242.56 4.44C242.63 4.44 242.75 4.45 242.89 4.45C243.03 4.45 243.17 4.47 243.33 4.47L243.33 8.53L237.13 8.53L237.13 4.47C237.30 4.47 237.45 4.45 237.59 4.45C237.73 4.45 237.83 4.44 237.90 4.44L238.04 4.44C238.22 4.42 238.31 4.34 238.31 4.19L238.31 3.92L237.13 3.92L236.42 3.92L235.23 3.92L235.23 4.19C235.23 4.34 235.33 4.42 235.51 4.44L235.65 4.44C235.72 4.44 235.82 4.45 235.96 4.45C236.10 4.45 236.25 4.47 236.42 4.47L236.42 13.26C236.25 13.26 236.10 13.27 235.96 13.27C235.82 13.27 235.72 13.29 235.65 13.29L235.51 13.29C235.33 13.30 235.23 13.38 235.23 13.54L235.23 13.82L236.42 13.82L237.13 13.82L238.31 13.82L238.31 13.54C238.31 13.38 238.22 13.30 238.04 13.29L237.90 13.29C237.83 13.29 237.73 13.27 237.59 13.27C237.45 13.27 237.30 13.26 237.13 13.26L237.13 9.07L243.33 9.07L243.33 13.26C243.17 13.26 243.03 13.27 242.89 13.27C242.75 13.27 242.63 13.29 242.56 13.29L242.44 13.29C242.26 13.30 242.16 13.38 242.16 13.54L242.16 13.82L243.33 13.82L244.06 13.82L245.24 13.82L245.24 13.54C245.24 13.38 245.14 13.30 244.96 13.29L244.83 13.29C244.76 13.29 244.65 13.27 244.51 13.27C244.37 13.27 244.23 13.26 244.06 13.26L244.06 4.47C244.23 4.47 244.37 4.45 244.51 4.45C244.65 4.45 244.76 4.44 244.83 4.44ZM254.77 3.92L253.58 3.92L253.58 4.19C253.58 4.34 253.68 4.42 253.86 4.44L254.00 4.44C254.07 4.44 254.17 4.45 254.31 4.45C254.45 4.45 254.60 4.47 254.77 4.47L254.77 13.26C254.60 13.26 254.45 13.27 254.31 13.27C254.17 13.27 254.07 13.29 254.00 13.29L253.86 13.29C253.68 13.30 253.60 13.38 253.60 13.54L253.60 13.82L254.77 13.82L260.71 13.82L260.71 13.22L260.71 11.76L260.36 11.76C260.16 11.76 260.08 11.89 260.06 12.11C260.06 12.14 260.05 12.19 260.05 12.29C260.05 12.39 260.05 12.53 260.04 12.74C260.02 12.95 260.01 13.09 260.01 13.22L255.49 13.22L255.49 9.09L259.43 9.09L259.43 8.51L255.49 8.51L255.49 4.51L260.01 4.51C260.04 5.12 260.06 5.50 260.06 5.63C260.08 5.85 260.16 5.96 260.36 5.96L260.71 5.96L260.71 4.51L260.71 3.92ZM287.66 13.29L287.56 13.29L287.38 13.29C287.29 13.29 287.21 13.27 287.13 13.27L284.16 9.53C284.07 9.42 283.96 9.32 283.85 9.25C284.28 9.21 284.68 9.11 285.03 8.96C285.38 8.81 285.66 8.61 285.91 8.37C286.15 8.13 286.34 7.85 286.47 7.55C286.59 7.24 286.66 6.89 286.66 6.51C286.66 5.66 286.38 5.03 285.82 4.58C285.26 4.14 284.41 3.92 283.26 3.92L280.85 3.92L279.68 3.92L279.68 4.19C279.68 4.34 279.76 4.42 279.94 4.44L280.08 4.44C280.15 4.44 280.25 4.45 280.39 4.45C280.53 4.45 280.69 4.47 280.85 4.47L280.85 13.26C280.69 13.26 280.53 13.27 280.39 13.27C280.25 13.27 280.15 13.29 280.08 13.29L279.94 13.29C279.76 13.30 279.66 13.38 279.66 13.54L279.66 13.82L280.85 13.82L281.57 13.82L282.74 13.82L282.74 13.54C282.74 13.38 282.65 13.30 282.46 13.29L282.32 13.29C282.25 13.29 282.16 13.27 282.02 13.27C281.88 13.27 281.74 13.26 281.57 13.26L281.57 9.34L282.74 9.34C282.94 9.34 283.08 9.35 283.16 9.39C283.25 9.44 283.33 9.52 283.42 9.62L286.59 13.64C286.65 13.71 286.69 13.75 286.75 13.78C286.80 13.80 286.87 13.82 286.94 13.82L287.01 13.82L287.56 13.82L287.92 13.82L287.92 13.54C287.92 13.38 287.84 13.30 287.66 13.29ZM283.16 8.81L281.57 8.81L281.57 4.48L283.26 4.48C284.14 4.48 284.82 4.66 285.28 5.00C285.74 5.33 285.96 5.87 285.96 6.57C285.96 6.92 285.91 7.21 285.78 7.49C285.66 7.77 285.46 7.99 285.22 8.19C284.98 8.39 284.69 8.55 284.34 8.65C283.99 8.75 283.60 8.81 283.16 8.81ZM298.94 4.44C299.12 4.42 299.21 4.34 299.21 4.19L299.21 3.91L298.03 3.91L297.32 3.91L296.13 3.91L296.13 4.19C296.13 4.34 296.23 4.42 296.41 4.44L296.55 4.44C296.62 4.44 296.72 4.45 296.86 4.45C297.00 4.45 297.15 4.47 297.32 4.47L297.32 13.26C297.15 13.26 297.00 13.27 296.86 13.27C296.72 13.27 296.62 13.29 296.55 13.29L296.41 13.29C296.23 13.30 296.13 13.38 296.13 13.54L296.13 13.82L297.32 13.82L298.03 13.82L299.21 13.82L299.21 13.54C299.21 13.38 299.12 13.30 298.94 13.29L298.80 13.29C298.73 13.29 298.63 13.27 298.49 13.27C298.35 13.27 298.20 13.26 298.03 13.26L298.03 4.47C298.20 4.47 298.35 4.45 298.49 4.45C298.63 4.45 298.73 4.44 298.80 4.44ZM313.19 9.32L313.19 9.72C313.19 9.76 313.22 9.80 313.25 9.83C313.28 9.86 313.32 9.87 313.38 9.87L315.28 9.87L315.28 12.54C315.06 12.67 314.83 12.78 314.62 12.88C314.41 12.98 314.17 13.08 313.94 13.15C313.70 13.22 313.43 13.27 313.15 13.30C312.87 13.33 312.56 13.34 312.23 13.34C311.61 13.34 311.05 13.24 310.55 13.03C310.04 12.82 309.61 12.53 309.25 12.15C308.88 11.77 308.60 11.30 308.41 10.74C308.21 10.18 308.10 9.56 308.10 8.86C308.10 8.18 308.21 7.56 308.41 7.01C308.60 6.47 308.88 5.99 309.25 5.61C309.61 5.24 310.06 4.94 310.58 4.73C311.09 4.52 311.67 4.42 312.31 4.42C313.49 4.42 314.43 4.58 315.11 4.90C315.15 5.81 315.18 6.31 315.18 6.41C315.20 6.64 315.29 6.75 315.49 6.75L315.83 6.75L315.83 4.51C315.39 4.31 314.83 4.14 314.13 4.00C313.43 3.86 312.84 3.81 312.34 3.81C311.58 3.81 310.90 3.92 310.28 4.16C309.67 4.40 309.15 4.75 308.71 5.18C308.28 5.61 307.96 6.15 307.72 6.78C307.48 7.39 307.37 8.09 307.37 8.86C307.37 9.63 307.48 10.32 307.72 10.95C307.96 11.58 308.28 12.10 308.70 12.54C309.12 12.99 309.64 13.33 310.23 13.57C310.81 13.80 311.46 13.93 312.17 13.93C312.59 13.93 312.97 13.90 313.32 13.86C313.67 13.80 313.99 13.73 314.30 13.65C314.61 13.55 314.89 13.44 315.15 13.30C315.42 13.16 315.67 13.01 315.92 12.84L315.92 9.32ZM334.05 4.44C334.24 4.42 334.33 4.34 334.33 4.19L334.33 3.92L333.16 3.92L332.43 3.92L331.25 3.92L331.25 4.19C331.25 4.34 331.35 4.42 331.53 4.44L331.66 4.44C331.73 4.44 331.84 4.45 331.98 4.45C332.12 4.45 332.26 4.47 332.43 4.47L332.43 8.53L326.23 8.53L326.23 4.47C326.40 4.47 326.55 4.45 326.69 4.45C326.83 4.45 326.93 4.44 327.00 4.44L327.14 4.44C327.32 4.42 327.40 4.34 327.40 4.19L327.40 3.92L326.23 3.92L325.51 3.92L324.32 3.92L324.32 4.19C324.32 4.34 324.42 4.42 324.60 4.44L324.74 4.44C324.81 4.44 324.91 4.45 325.05 4.45C325.19 4.45 325.35 4.47 325.51 4.47L325.51 13.26C325.35 13.26 325.19 13.27 325.05 13.27C324.91 13.27 324.81 13.29 324.74 13.29L324.60 13.29C324.42 13.30 324.32 13.38 324.32 13.54L324.32 13.82L325.51 13.82L326.23 13.82L327.40 13.82L327.40 13.54C327.40 13.38 327.32 13.30 327.14 13.29L327.00 13.29C326.93 13.29 326.83 13.27 326.69 13.27C326.55 13.27 326.40 13.26 326.23 13.26L326.23 9.07L332.43 9.07L332.43 13.26C332.26 13.26 332.12 13.27 331.98 13.27C331.84 13.27 331.73 13.29 331.66 13.29L331.53 13.29C331.35 13.30 331.25 13.38 331.25 13.54L331.25 13.82L332.43 13.82L333.16 13.82L334.33 13.82L334.33 13.54C334.33 13.38 334.24 13.30 334.05 13.29L333.93 13.29C333.86 13.29 333.75 13.27 333.61 13.27C333.47 13.27 333.33 13.26 333.16 13.26L333.16 4.47C333.33 4.47 333.47 4.45 333.61 4.45C333.75 4.45 333.86 4.44 333.93 4.44ZM350.20 3.92L350 3.92L342.71 3.92L342.50 3.92L342.40 3.92L342.40 5.96L342.75 5.96C342.94 5.96 343.03 5.85 343.04 5.63C343.04 5.53 343.07 5.17 343.10 4.52L346.00 4.52L346.00 13.26C345.83 13.26 345.69 13.27 345.55 13.27C345.41 13.27 345.30 13.29 345.23 13.29L345.10 13.29C344.92 13.30 344.82 13.38 344.82 13.54L344.82 13.82L346.00 13.82L346.71 13.82L347.90 13.82L347.90 13.54C347.90 13.38 347.80 13.30 347.62 13.29L347.48 13.29C347.41 13.29 347.31 13.27 347.17 13.27C347.03 13.27 346.88 13.26 346.71 13.26L346.71 4.52L349.59 4.52C349.64 5.24 349.65 5.60 349.65 5.63C349.66 5.85 349.76 5.96 349.96 5.96L350.29 5.96L350.29 3.92ZM382.58 3.92L382.03 3.92L381.99 3.92L380.52 3.92L380.52 4.19C380.52 4.34 380.60 4.42 380.79 4.44L380.91 4.44C380.97 4.44 381.07 4.45 381.21 4.45C381.35 4.45 381.49 4.47 381.65 4.47L379.27 12.24C379.25 12.33 379.22 12.43 379.20 12.54C379.19 12.66 379.16 12.75 379.13 12.87C379.11 12.75 379.09 12.63 379.06 12.53L378.98 12.24L376.18 4.10C376.15 4.05 376.12 3.99 376.08 3.96C376.04 3.93 375.98 3.92 375.91 3.92L375.72 3.92C375.65 3.92 375.59 3.93 375.55 3.98C375.51 4.02 375.47 4.05 375.45 4.10L372.65 12.25C372.62 12.35 372.60 12.43 372.57 12.54C372.54 12.64 372.53 12.75 372.50 12.88C372.48 12.78 372.46 12.67 372.43 12.54C372.41 12.43 372.39 12.33 372.36 12.24L369.98 4.47C370.15 4.47 370.29 4.45 370.41 4.45C370.54 4.45 370.62 4.44 370.68 4.44L370.79 4.44C370.97 4.42 371.07 4.34 371.07 4.19L371.07 3.92L369.60 3.92L369.01 3.92L368.41 3.92L368.41 4.19C368.41 4.34 368.51 4.42 368.69 4.44L368.79 4.44C368.83 4.44 368.87 4.45 368.94 4.45C369.01 4.45 369.10 4.47 369.18 4.47L372.13 13.82L372.76 13.82L375.70 5.22C375.75 5.11 375.77 5.00 375.80 4.87C375.83 5.00 375.86 5.11 375.90 5.22L378.83 13.82L379.47 13.82L382.41 4.47C382.49 4.47 382.56 4.45 382.63 4.45C382.70 4.45 382.76 4.44 382.80 4.44L382.90 4.44C383.08 4.42 383.17 4.34 383.17 4.19L383.17 3.92ZM398.97 13.22L398.51 13.17L394.73 3.91L394.02 3.91L390.22 13.17L389.77 13.22C389.59 13.23 389.51 13.33 389.51 13.50L389.51 13.82L389.96 13.82L390.25 13.82L390.50 13.82L390.60 13.82L391.92 13.82L391.92 13.50C391.92 13.31 391.80 13.23 391.59 13.22C391.58 13.22 391.55 13.20 391.51 13.20C391.47 13.20 391.41 13.19 391.31 13.19C391.22 13.19 391.09 13.19 390.95 13.17L391.93 10.75L392 10.57L396.73 10.57L396.80 10.75L397.78 13.17C397.64 13.19 397.53 13.19 397.43 13.19C397.33 13.19 397.26 13.20 397.22 13.20C397.18 13.20 397.15 13.22 397.14 13.22C396.93 13.23 396.82 13.31 396.82 13.50L396.82 13.82L398.13 13.82L398.23 13.82L398.50 13.82L398.78 13.82L399.24 13.82L399.24 13.50C399.24 13.33 399.15 13.23 398.97 13.22ZM394.17 5.22C394.20 5.14 394.24 5.04 394.27 4.94C394.30 4.84 394.34 4.75 394.37 4.63C394.39 4.75 394.44 4.84 394.46 4.94C394.49 5.04 394.53 5.12 394.56 5.21L396.52 10.04L392.22 10.04ZM413.99 3.92L413.92 3.92L413.36 3.92L413.25 3.92L411.85 3.92L411.85 4.19C411.85 4.34 411.95 4.42 412.13 4.44L412.24 4.44C412.30 4.44 412.37 4.45 412.48 4.45C412.59 4.45 412.72 4.47 412.86 4.47L410.27 8.64C410.20 8.75 410.14 8.85 410.10 8.95C410.06 9.04 410.02 9.16 409.98 9.25C409.93 9.16 409.89 9.04 409.85 8.95C409.81 8.85 409.75 8.75 409.68 8.64L407.08 4.47C407.22 4.47 407.34 4.45 407.46 4.45C407.57 4.45 407.65 4.44 407.71 4.44L407.81 4.44C407.99 4.42 408.09 4.34 408.09 4.19L408.09 3.92L406.69 3.92L406.57 3.92L406.01 3.92L405.94 3.92L405.50 3.92L405.50 4.19C405.50 4.34 405.59 4.42 405.78 4.44C406.01 4.45 406.20 4.47 406.29 4.47L409.61 9.73L409.61 13.26C409.44 13.26 409.29 13.27 409.15 13.27C409.01 13.27 408.91 13.29 408.84 13.29L408.72 13.29C408.53 13.30 408.44 13.38 408.44 13.54L408.44 13.82L409.61 13.82L410.33 13.82L411.50 13.82L411.50 13.54C411.50 13.38 411.42 13.30 411.24 13.29L411.10 13.29C411.03 13.29 410.93 13.27 410.79 13.27C410.65 13.27 410.49 13.26 410.33 13.26L410.33 9.73L413.64 4.47C413.76 4.47 413.92 4.45 414.16 4.44C414.34 4.42 414.44 4.34 414.44 4.19L414.44 3.92Z"></path></g></svg>