<svg data-v-423bf9ae="" xmlns="http://www.w3.org/2000/svg" viewBox="0 0 568.977796766493 60" class="font"><!----><!----><!----><g data-v-423bf9ae="" id="61faea05-50e2-47ad-8998-a8a1a86c08ec" fill="black" transform="matrix(4.444444444444445,0,0,4.444444444444445,-4.977772063679197,-9.688889424006149)"><path d="M3.96 3.23L3.96 3.23L3.96 3.23Q6.15 3.23 7.31 4.01L7.31 4.01L7.31 4.01Q8.47 4.79 8.47 6.43L8.47 6.43L8.47 6.43Q8.47 7.45 8.00 8.09L8.00 8.09L8.00 8.09Q7.53 8.72 6.65 9.09L6.65 9.09L6.65 9.09Q6.94 9.45 7.27 9.92L7.27 9.92L7.27 9.92Q7.59 10.39 7.90 10.90L7.90 10.90L7.90 10.90Q8.22 11.41 8.51 11.96L8.51 11.96L8.51 11.96Q8.81 12.52 9.06 13.05L9.06 13.05L6.61 13.05L6.61 13.05Q6.34 12.57 6.07 12.08L6.07 12.08L6.07 12.08Q5.80 11.59 5.51 11.13L5.51 11.13L5.51 11.13Q5.22 10.67 4.94 10.25L4.94 10.25L4.94 10.25Q4.66 9.84 4.38 9.51L4.38 9.51L3.30 9.51L3.30 13.05L1.12 13.05L1.12 3.49L1.12 3.49Q1.83 3.35 2.60 3.29L2.60 3.29L2.60 3.29Q3.36 3.23 3.96 3.23ZM4.09 5.10L4.09 5.10L4.09 5.10Q3.85 5.10 3.66 5.11L3.66 5.11L3.66 5.11Q3.47 5.12 3.30 5.14L3.30 5.14L3.30 7.77L3.92 7.77L3.92 7.77Q5.15 7.77 5.68 7.46L5.68 7.46L5.68 7.46Q6.22 7.15 6.22 6.41L6.22 6.41L6.22 6.41Q6.22 5.70 5.68 5.40L5.68 5.40L5.68 5.40Q5.14 5.10 4.09 5.10ZM12.40 5.68L12.40 13.05L10.32 13.05L10.32 5.68L12.40 5.68ZM12.60 3.56L12.60 3.56L12.60 3.56Q12.60 4.13 12.23 4.46L12.23 4.46L12.23 4.46Q11.86 4.79 11.35 4.79L11.35 4.79L11.35 4.79Q10.85 4.79 10.48 4.46L10.48 4.46L10.48 4.46Q10.11 4.13 10.11 3.56L10.11 3.56L10.11 3.56Q10.11 2.98 10.48 2.65L10.48 2.65L10.48 2.65Q10.85 2.32 11.35 2.32L11.35 2.32L11.35 2.32Q11.86 2.32 12.23 2.65L12.23 2.65L12.23 2.65Q12.60 2.98 12.60 3.56ZM16.14 9.13L16.14 9.13L16.14 9.13Q16.14 10.88 17.56 10.88L17.56 10.88L17.56 10.88Q17.88 10.88 18.16 10.79L18.16 10.79L18.16 10.79Q18.44 10.71 18.63 10.60L18.63 10.60L18.63 7.27L18.63 7.27Q18.48 7.24 18.27 7.22L18.27 7.22L18.27 7.22Q18.06 7.20 17.78 7.20L17.78 7.20L17.78 7.20Q16.95 7.20 16.55 7.74L16.55 7.74L16.55 7.74Q16.14 8.29 16.14 9.13ZM20.72 5.94L20.72 12.12L20.72 12.12Q20.72 13.93 19.80 14.80L19.80 14.80L19.80 14.80Q18.89 15.68 16.97 15.68L16.97 15.68L16.97 15.68Q16.30 15.68 15.62 15.56L15.62 15.56L15.62 15.56Q14.95 15.44 14.38 15.25L14.38 15.25L14.74 13.50L14.74 13.50Q15.23 13.69 15.77 13.80L15.77 13.80L15.77 13.80Q16.31 13.92 17.00 13.92L17.00 13.92L17.00 13.92Q17.89 13.92 18.26 13.52L18.26 13.52L18.26 13.52Q18.63 13.13 18.63 12.52L18.63 12.52L18.63 12.25L18.63 12.25Q18.30 12.40 17.94 12.48L17.94 12.48L17.94 12.48Q17.58 12.56 17.16 12.56L17.16 12.56L17.16 12.56Q15.64 12.56 14.83 11.65L14.83 11.65L14.83 11.65Q14.01 10.75 14.01 9.13L14.01 9.13L14.01 9.13Q14.01 8.32 14.27 7.65L14.27 7.65L14.27 7.65Q14.52 6.99 15.00 6.51L15.00 6.51L15.00 6.51Q15.48 6.03 16.18 5.77L16.18 5.77L16.18 5.77Q16.88 5.52 17.77 5.52L17.77 5.52L17.77 5.52Q18.14 5.52 18.54 5.55L18.54 5.55L18.54 5.55Q18.94 5.59 19.33 5.64L19.33 5.64L19.33 5.64Q19.73 5.70 20.08 5.77L20.08 5.77L20.08 5.77Q20.44 5.85 20.72 5.94L20.72 5.94ZM24.77 13.05L22.68 13.05L22.68 2.52L24.77 2.18L24.77 5.71L24.77 5.71Q24.98 5.64 25.31 5.58L25.31 5.58L25.31 5.58Q25.63 5.52 25.94 5.52L25.94 5.52L25.94 5.52Q26.84 5.52 27.43 5.76L27.43 5.76L27.43 5.76Q28.03 6.01 28.39 6.45L28.39 6.45L28.39 6.45Q28.74 6.90 28.89 7.52L28.89 7.52L28.89 7.52Q29.04 8.13 29.04 8.89L29.04 8.89L29.04 13.05L26.95 13.05L26.95 9.14L26.95 9.14Q26.95 8.13 26.69 7.71L26.69 7.71L26.69 7.71Q26.43 7.29 25.73 7.29L25.73 7.29L25.73 7.29Q25.45 7.29 25.21 7.34L25.21 7.34L25.21 7.34Q24.96 7.39 24.77 7.45L24.77 7.45L24.77 13.05ZM30.86 10.04L30.86 3.85L32.94 3.51L32.94 5.68L35.45 5.68L35.45 7.42L32.94 7.42L32.94 10.01L32.94 10.01Q32.94 10.67 33.17 11.06L33.17 11.06L33.17 11.06Q33.40 11.45 34.10 11.45L34.10 11.45L34.10 11.45Q34.44 11.45 34.80 11.39L34.80 11.39L34.80 11.39Q35.15 11.33 35.45 11.21L35.45 11.21L35.74 12.84L35.74 12.84Q35.36 12.99 34.90 13.10L34.90 13.10L34.90 13.10Q34.44 13.22 33.77 13.22L33.77 13.22L33.77 13.22Q32.91 13.22 32.35 12.98L32.35 12.98L32.35 12.98Q31.79 12.75 31.46 12.34L31.46 12.34L31.46 12.34Q31.12 11.93 30.99 11.34L30.99 11.34L30.99 11.34Q30.86 10.75 30.86 10.04L30.86 10.04ZM45.29 4.38L47.15 4.38L47.15 4.38Q47.32 4.96 47.52 5.68L47.52 5.68L47.52 5.68Q47.73 6.40 47.96 7.17L47.96 7.17L47.96 7.17Q48.19 7.94 48.43 8.71L48.43 8.71L48.43 8.71Q48.66 9.48 48.89 10.14L48.89 10.14L48.89 10.14Q49.07 9.42 49.26 8.58L49.26 8.58L49.26 8.58Q49.45 7.74 49.62 6.85L49.62 6.85L49.62 6.85Q49.78 5.95 49.95 5.06L49.95 5.06L49.95 5.06Q50.11 4.17 50.25 3.35L50.25 3.35L52.51 3.35L52.51 3.35Q52.02 5.78 51.39 8.29L51.39 8.29L51.39 8.29Q50.75 10.79 50.01 13.05L50.01 13.05L48.01 13.05L48.01 13.05Q47.52 11.70 47.05 10.23L47.05 10.23L47.05 10.23Q46.59 8.75 46.14 7.27L46.14 7.27L46.14 7.27Q45.70 8.75 45.25 10.23L45.25 10.23L45.25 10.23Q44.80 11.70 44.31 13.05L44.31 13.05L42.31 13.05L42.31 13.05Q41.57 10.79 40.93 8.29L40.93 8.29L40.93 8.29Q40.29 5.78 39.80 3.35L39.80 3.35L42.17 3.35L42.17 3.35Q42.31 4.17 42.48 5.06L42.48 5.06L42.48 5.06Q42.64 5.95 42.83 6.85L42.83 6.85L42.83 6.85Q43.01 7.74 43.20 8.58L43.20 8.58L43.20 8.58Q43.39 9.42 43.58 10.14L43.58 10.14L43.58 10.14Q43.83 9.45 44.07 8.68L44.07 8.68L44.07 8.68Q44.31 7.91 44.53 7.14L44.53 7.14L44.53 7.14Q44.76 6.37 44.95 5.66L44.95 5.66L44.95 5.66Q45.14 4.94 45.29 4.38L45.29 4.38ZM56.59 11.59L56.59 11.59L56.59 11.59Q56.90 11.59 57.18 11.58L57.18 11.58L57.18 11.58Q57.46 11.56 57.62 11.54L57.62 11.54L57.62 9.95L57.62 9.95Q57.50 9.93 57.25 9.90L57.25 9.90L57.25 9.90Q56.99 9.87 56.78 9.87L56.78 9.87L56.78 9.87Q56.49 9.87 56.23 9.90L56.23 9.90L56.23 9.90Q55.97 9.94 55.78 10.04L55.78 10.04L55.78 10.04Q55.58 10.14 55.47 10.30L55.47 10.30L55.47 10.30Q55.36 10.47 55.36 10.72L55.36 10.72L55.36 10.72Q55.36 11.21 55.69 11.40L55.69 11.40L55.69 11.40Q56.01 11.59 56.59 11.59ZM56.42 5.49L56.42 5.49L56.42 5.49Q57.34 5.49 57.96 5.70L57.96 5.70L57.96 5.70Q58.58 5.91 58.95 6.30L58.95 6.30L58.95 6.30Q59.32 6.69 59.47 7.25L59.47 7.25L59.47 7.25Q59.63 7.81 59.63 8.50L59.63 8.50L59.63 12.84L59.63 12.84Q59.18 12.94 58.38 13.07L58.38 13.07L58.38 13.07Q57.58 13.20 56.45 13.20L56.45 13.20L56.45 13.20Q55.73 13.20 55.15 13.08L55.15 13.08L55.15 13.08Q54.57 12.95 54.15 12.66L54.15 12.66L54.15 12.66Q53.73 12.38 53.51 11.91L53.51 11.91L53.51 11.91Q53.28 11.45 53.28 10.78L53.28 10.78L53.28 10.78Q53.28 10.14 53.54 9.69L53.54 9.69L53.54 9.69Q53.80 9.24 54.24 8.97L54.24 8.97L54.24 8.97Q54.67 8.71 55.23 8.59L55.23 8.59L55.23 8.59Q55.79 8.47 56.39 8.47L56.39 8.47L56.39 8.47Q56.80 8.47 57.11 8.50L57.11 8.50L57.11 8.50Q57.43 8.54 57.62 8.60L57.62 8.60L57.62 8.40L57.62 8.40Q57.62 7.87 57.30 7.55L57.30 7.55L57.30 7.55Q56.98 7.22 56.18 7.22L56.18 7.22L56.18 7.22Q55.65 7.22 55.13 7.30L55.13 7.30L55.13 7.30Q54.61 7.38 54.24 7.52L54.24 7.52L53.97 5.84L53.97 5.84Q54.15 5.78 54.43 5.72L54.43 5.72L54.43 5.72Q54.70 5.66 55.02 5.61L55.02 5.61L55.02 5.61Q55.34 5.56 55.70 5.52L55.70 5.52L55.70 5.52Q56.06 5.49 56.42 5.49ZM65.90 5.68L68.05 5.68L68.05 5.68Q67.42 7.81 66.74 9.67L66.74 9.67L66.74 9.67Q66.05 11.54 65.24 13.29L65.24 13.29L65.24 13.29Q64.95 13.92 64.65 14.36L64.65 14.36L64.65 14.36Q64.36 14.80 64.01 15.09L64.01 15.09L64.01 15.09Q63.66 15.37 63.22 15.50L63.22 15.50L63.22 15.50Q62.78 15.64 62.19 15.64L62.19 15.64L62.19 15.64Q61.70 15.64 61.29 15.55L61.29 15.55L61.29 15.55Q60.87 15.46 60.61 15.34L60.61 15.34L60.97 13.68L60.97 13.68Q61.29 13.79 61.54 13.83L61.54 13.83L61.54 13.83Q61.80 13.87 62.08 13.87L62.08 13.87L62.08 13.87Q62.64 13.87 62.94 13.57L62.94 13.57L62.94 13.57Q63.24 13.27 63.45 12.74L63.45 12.74L63.45 12.74Q62.73 11.34 62.02 9.60L62.02 9.60L62.02 9.60Q61.31 7.85 60.68 5.68L60.68 5.68L62.89 5.68L62.89 5.68Q63.03 6.23 63.22 6.87L63.22 6.87L63.22 6.87Q63.41 7.50 63.62 8.16L63.62 8.16L63.62 8.16Q63.83 8.81 64.04 9.42L64.04 9.42L64.04 9.42Q64.26 10.04 64.46 10.54L64.46 10.54L64.46 10.54Q64.64 10.04 64.83 9.42L64.83 9.42L64.83 9.42Q65.03 8.81 65.22 8.16L65.22 8.16L65.22 8.16Q65.41 7.50 65.58 6.87L65.58 6.87L65.58 6.87Q65.76 6.23 65.90 5.68L65.90 5.68ZM74.86 11.17L79.16 11.17L79.16 13.05L72.67 13.05L72.67 3.35L74.86 3.35L74.86 11.17ZM80.07 9.42L80.07 9.42L80.07 9.42Q80.07 8.44 80.37 7.71L80.37 7.71L80.37 7.71Q80.67 6.97 81.16 6.48L81.16 6.48L81.16 6.48Q81.65 5.99 82.29 5.74L82.29 5.74L82.29 5.74Q82.92 5.49 83.59 5.49L83.59 5.49L83.59 5.49Q85.16 5.49 86.07 6.45L86.07 6.45L86.07 6.45Q86.98 7.41 86.98 9.27L86.98 9.27L86.98 9.27Q86.98 9.45 86.97 9.67L86.97 9.67L86.97 9.67Q86.95 9.88 86.94 10.05L86.94 10.05L82.21 10.05L82.21 10.05Q82.28 10.70 82.81 11.07L82.81 11.07L82.81 11.07Q83.34 11.45 84.24 11.45L84.24 11.45L84.24 11.45Q84.81 11.45 85.37 11.35L85.37 11.35L85.37 11.35Q85.92 11.24 86.27 11.09L86.27 11.09L86.55 12.78L86.55 12.78Q86.38 12.87 86.10 12.95L86.10 12.95L86.10 12.95Q85.82 13.03 85.48 13.10L85.48 13.10L85.48 13.10Q85.13 13.16 84.74 13.20L84.74 13.20L84.74 13.20Q84.35 13.24 83.96 13.24L83.96 13.24L83.96 13.24Q82.96 13.24 82.23 12.95L82.23 12.95L82.23 12.95Q81.49 12.66 81.01 12.14L81.01 12.14L81.01 12.14Q80.53 11.63 80.30 10.93L80.30 10.93L80.30 10.93Q80.07 10.23 80.07 9.42ZM82.21 8.62L84.97 8.62L84.97 8.62Q84.95 8.36 84.88 8.11L84.88 8.11L84.88 8.11Q84.80 7.85 84.64 7.66L84.64 7.66L84.64 7.66Q84.48 7.46 84.23 7.34L84.23 7.34L84.23 7.34Q83.99 7.21 83.62 7.21L83.62 7.21L83.62 7.21Q83.27 7.21 83.02 7.33L83.02 7.33L83.02 7.33Q82.77 7.45 82.60 7.64L82.60 7.64L82.60 7.64Q82.43 7.84 82.34 8.10L82.34 8.10L82.34 8.10Q82.25 8.36 82.21 8.62L82.21 8.62ZM91.41 11.59L91.41 11.59L91.41 11.59Q91.71 11.59 91.99 11.58L91.99 11.58L91.99 11.58Q92.27 11.56 92.44 11.54L92.44 11.54L92.44 9.95L92.44 9.95Q92.32 9.93 92.06 9.90L92.06 9.90L92.06 9.90Q91.81 9.87 91.60 9.87L91.60 9.87L91.60 9.87Q91.31 9.87 91.05 9.90L91.05 9.90L91.05 9.90Q90.79 9.94 90.59 10.04L90.59 10.04L90.59 10.04Q90.40 10.14 90.29 10.30L90.29 10.30L90.29 10.30Q90.17 10.47 90.17 10.72L90.17 10.72L90.17 10.72Q90.17 11.21 90.50 11.40L90.50 11.40L90.50 11.40Q90.83 11.59 91.41 11.59ZM91.24 5.49L91.24 5.49L91.24 5.49Q92.16 5.49 92.78 5.70L92.78 5.70L92.78 5.70Q93.39 5.91 93.77 6.30L93.77 6.30L93.77 6.30Q94.14 6.69 94.29 7.25L94.29 7.25L94.29 7.25Q94.44 7.81 94.44 8.50L94.44 8.50L94.44 12.84L94.44 12.84Q94.00 12.94 93.20 13.07L93.20 13.07L93.20 13.07Q92.40 13.20 91.27 13.20L91.27 13.20L91.27 13.20Q90.55 13.20 89.97 13.08L89.97 13.08L89.97 13.08Q89.39 12.95 88.97 12.66L88.97 12.66L88.97 12.66Q88.55 12.38 88.33 11.91L88.33 11.91L88.33 11.91Q88.10 11.45 88.10 10.78L88.10 10.78L88.10 10.78Q88.10 10.14 88.36 9.69L88.36 9.69L88.36 9.69Q88.62 9.24 89.05 8.97L89.05 8.97L89.05 8.97Q89.49 8.71 90.05 8.59L90.05 8.59L90.05 8.59Q90.61 8.47 91.21 8.47L91.21 8.47L91.21 8.47Q91.62 8.47 91.93 8.50L91.93 8.50L91.93 8.50Q92.25 8.54 92.44 8.60L92.44 8.60L92.44 8.40L92.44 8.40Q92.44 7.87 92.12 7.55L92.12 7.55L92.12 7.55Q91.80 7.22 91.00 7.22L91.00 7.22L91.00 7.22Q90.47 7.22 89.95 7.30L89.95 7.30L89.95 7.30Q89.43 7.38 89.05 7.52L89.05 7.52L88.79 5.84L88.79 5.84Q88.97 5.78 89.24 5.72L89.24 5.72L89.24 5.72Q89.52 5.66 89.84 5.61L89.84 5.61L89.84 5.61Q90.16 5.56 90.52 5.52L90.52 5.52L90.52 5.52Q90.87 5.49 91.24 5.49ZM101.12 5.81L100.77 7.53L100.77 7.53Q100.49 7.46 100.11 7.38L100.11 7.38L100.11 7.38Q99.74 7.31 99.30 7.31L99.30 7.31L99.30 7.31Q99.11 7.31 98.83 7.34L98.83 7.34L98.83 7.34Q98.56 7.38 98.42 7.42L98.42 7.42L98.42 13.05L96.33 13.05L96.33 6.08L96.33 6.08Q96.89 5.88 97.66 5.71L97.66 5.71L97.66 5.71Q98.42 5.53 99.36 5.53L99.36 5.53L99.36 5.53Q99.53 5.53 99.76 5.55L99.76 5.55L99.76 5.55Q100.00 5.57 100.24 5.61L100.24 5.61L100.24 5.61Q100.48 5.64 100.72 5.69L100.72 5.69L100.72 5.69Q100.95 5.74 101.12 5.81L101.12 5.81ZM102.24 13.05L102.24 5.94L102.24 5.94Q102.77 5.78 103.61 5.65L103.61 5.65L103.61 5.65Q104.45 5.52 105.38 5.52L105.38 5.52L105.38 5.52Q106.32 5.52 106.94 5.76L106.94 5.76L106.94 5.76Q107.56 6.01 107.93 6.45L107.93 6.45L107.93 6.45Q108.29 6.90 108.44 7.52L108.44 7.52L108.44 7.52Q108.60 8.13 108.60 8.89L108.60 8.89L108.60 13.05L106.51 13.05L106.51 9.14L106.51 9.14Q106.51 8.13 106.25 7.71L106.25 7.71L106.25 7.71Q105.98 7.29 105.25 7.29L105.25 7.29L105.25 7.29Q105.03 7.29 104.78 7.31L104.78 7.31L104.78 7.31Q104.52 7.34 104.33 7.36L104.33 7.36L104.33 13.05L102.24 13.05ZM112.57 5.68L112.57 13.05L110.49 13.05L110.49 5.68L112.57 5.68ZM112.77 3.56L112.77 3.56L112.77 3.56Q112.77 4.13 112.40 4.46L112.40 4.46L112.40 4.46Q112.03 4.79 111.52 4.79L111.52 4.79L111.52 4.79Q111.02 4.79 110.65 4.46L110.65 4.46L110.65 4.46Q110.28 4.13 110.28 3.56L110.28 3.56L110.28 3.56Q110.28 2.98 110.65 2.65L110.65 2.65L110.65 2.65Q111.02 2.32 111.52 2.32L111.52 2.32L111.52 2.32Q112.03 2.32 112.40 2.65L112.40 2.65L112.40 2.65Q112.77 2.98 112.77 3.56ZM114.53 13.05L114.53 5.94L114.53 5.94Q115.07 5.78 115.91 5.65L115.91 5.65L115.91 5.65Q116.75 5.52 117.67 5.52L117.67 5.52L117.67 5.52Q118.61 5.52 119.23 5.76L119.23 5.76L119.23 5.76Q119.85 6.01 120.22 6.45L120.22 6.45L120.22 6.45Q120.58 6.90 120.74 7.52L120.74 7.52L120.74 7.52Q120.89 8.13 120.89 8.89L120.89 8.89L120.89 13.05L118.80 13.05L118.80 9.14L118.80 9.14Q118.80 8.13 118.54 7.71L118.54 7.71L118.54 7.71Q118.27 7.29 117.54 7.29L117.54 7.29L117.54 7.29Q117.32 7.29 117.07 7.31L117.07 7.31L117.07 7.31Q116.82 7.34 116.62 7.36L116.62 7.36L116.62 13.05L114.53 13.05ZM124.56 9.13L124.56 9.13L124.56 9.13Q124.56 10.88 125.97 10.88L125.97 10.88L125.97 10.88Q126.29 10.88 126.57 10.79L126.57 10.79L126.57 10.79Q126.85 10.71 127.05 10.60L127.05 10.60L127.05 7.27L127.05 7.27Q126.90 7.24 126.69 7.22L126.69 7.22L126.69 7.22Q126.48 7.20 126.20 7.20L126.20 7.20L126.20 7.20Q125.37 7.20 124.96 7.74L124.96 7.74L124.96 7.74Q124.56 8.29 124.56 9.13ZM129.14 5.94L129.14 12.12L129.14 12.12Q129.14 13.93 128.22 14.80L128.22 14.80L128.22 14.80Q127.30 15.68 125.38 15.68L125.38 15.68L125.38 15.68Q124.71 15.68 124.04 15.56L124.04 15.56L124.04 15.56Q123.37 15.44 122.79 15.25L122.79 15.25L123.16 13.50L123.16 13.50Q123.65 13.69 124.19 13.80L124.19 13.80L124.19 13.80Q124.73 13.92 125.41 13.92L125.41 13.92L125.41 13.92Q126.31 13.92 126.68 13.52L126.68 13.52L126.68 13.52Q127.05 13.13 127.05 12.52L127.05 12.52L127.05 12.25L127.05 12.25Q126.71 12.40 126.36 12.48L126.36 12.48L126.36 12.48Q126.00 12.56 125.58 12.56L125.58 12.56L125.58 12.56Q124.05 12.56 123.24 11.65L123.24 11.65L123.24 11.65Q122.43 10.75 122.43 9.13L122.43 9.13L122.43 9.13Q122.43 8.32 122.68 7.65L122.68 7.65L122.68 7.65Q122.93 6.99 123.42 6.51L123.42 6.51L123.42 6.51Q123.90 6.03 124.60 5.77L124.60 5.77L124.60 5.77Q125.30 5.52 126.18 5.52L126.18 5.52L126.18 5.52Q126.56 5.52 126.96 5.55L126.96 5.55L126.96 5.55Q127.36 5.59 127.75 5.64L127.75 5.64L127.75 5.64Q128.14 5.70 128.50 5.77L128.50 5.77L128.50 5.77Q128.86 5.85 129.14 5.94L129.14 5.94Z"></path></g><!----><!----></svg>